<mxfile host="app.diagrams.net" agent="Mozilla/5.0 (Windows NT 10.0; Win64; x64) AppleWebKit/537.36 (KHTML, like Gecko) Chrome/131.0.0.0 Safari/537.36" version="25.0.0">
  <diagram name="Page-1" id="Fkfc0REELfRw5zq3Huco">
    <mxGraphModel dx="1290" dy="556" grid="1" gridSize="10" guides="1" tooltips="1" connect="1" arrows="1" fold="1" page="1" pageScale="1" pageWidth="850" pageHeight="1100" math="0" shadow="0">
      <root>
        <mxCell id="0" />
        <mxCell id="1" parent="0" />
        <mxCell id="m3QXswK85xcnjSoyaYpc-2" value="&lt;p style=&quot;margin:0px;margin-top:4px;text-align:center;&quot;&gt;&lt;font style=&quot;font-size: 14px;&quot;&gt;&lt;i&gt;&amp;lt;&amp;lt;Interface&amp;gt;&amp;gt;&lt;/i&gt;&lt;br&gt;&lt;b&gt;Observer&lt;/b&gt;&lt;/font&gt;&lt;/p&gt;&lt;hr size=&quot;1&quot; style=&quot;border-style:solid;&quot;&gt;&lt;p style=&quot;margin:0px;margin-left:4px;&quot;&gt;&lt;br&gt;&lt;/p&gt;&lt;p style=&quot;margin:0px;margin-left:4px;&quot;&gt;&lt;font style=&quot;font-size: 14px;&quot;&gt;+ weatherUpdate(weather String):void&lt;/font&gt;&lt;br&gt;&lt;/p&gt;" style="verticalAlign=top;align=left;overflow=fill;html=1;whiteSpace=wrap;" vertex="1" parent="1">
          <mxGeometry x="520" y="70" width="250" height="90" as="geometry" />
        </mxCell>
        <mxCell id="m3QXswK85xcnjSoyaYpc-6" value="&lt;p style=&quot;margin:0px;margin-top:4px;text-align:center;&quot;&gt;&lt;b&gt;&lt;font style=&quot;font-size: 14px;&quot;&gt;WeatherStationPublisher&lt;/font&gt;&lt;/b&gt;&lt;/p&gt;&lt;hr size=&quot;1&quot; style=&quot;border-style:solid;&quot;&gt;&lt;p style=&quot;margin:0px;margin-left:4px;&quot;&gt;&lt;font style=&quot;font-size: 18px;&quot;&gt;-&amp;nbsp;&lt;/font&gt;&lt;font style=&quot;font-size: 14px;&quot;&gt;weather: String&lt;/font&gt;&lt;/p&gt;&lt;p style=&quot;margin:0px;margin-left:4px;&quot;&gt;&lt;font style=&quot;font-size: 18px;&quot;&gt;-&amp;nbsp;&lt;/font&gt;&lt;font style=&quot;font-size: 14px;&quot;&gt;listofSubscribers:&amp;nbsp; List&amp;lt;Observer&amp;gt;&lt;/font&gt;&lt;/p&gt;&lt;hr size=&quot;1&quot; style=&quot;border-style:solid;&quot;&gt;&lt;p style=&quot;margin:0px;margin-left:4px;&quot;&gt;&lt;font size=&quot;3&quot;&gt;+ addObserver(observer: Observer): void&lt;/font&gt;&lt;/p&gt;&lt;p style=&quot;margin:0px;margin-left:4px;&quot;&gt;&lt;font size=&quot;3&quot;&gt;+ removeObserver(observer: Observer):void&lt;/font&gt;&lt;/p&gt;&lt;p style=&quot;margin:0px;margin-left:4px;&quot;&gt;&lt;font size=&quot;3&quot;&gt;+ notifyObservers():void&lt;/font&gt;&lt;/p&gt;&lt;p style=&quot;margin:0px;margin-left:4px;&quot;&gt;&lt;font size=&quot;3&quot;&gt;+ setWeather(weather: String): void&lt;/font&gt;&lt;/p&gt;" style="verticalAlign=top;align=left;overflow=fill;html=1;whiteSpace=wrap;" vertex="1" parent="1">
          <mxGeometry x="15" y="300" width="350" height="170" as="geometry" />
        </mxCell>
        <mxCell id="m3QXswK85xcnjSoyaYpc-7" value="&lt;p style=&quot;margin:0px;margin-top:4px;text-align:center;&quot;&gt;&lt;font style=&quot;font-size: 14px;&quot;&gt;&lt;i&gt;&amp;lt;&amp;lt;Interface&amp;gt;&amp;gt;&lt;/i&gt;&lt;br&gt;&lt;b&gt;WeatherStation&lt;/b&gt;&lt;/font&gt;&lt;/p&gt;&lt;hr size=&quot;1&quot; style=&quot;border-style:solid;&quot;&gt;&lt;p style=&quot;margin:0px;margin-left:4px;&quot;&gt;&lt;br&gt;&lt;/p&gt;&lt;p style=&quot;margin: 0px 0px 0px 4px;&quot;&gt;&lt;font size=&quot;3&quot;&gt;+ addObserver(observer: Observer): void&lt;/font&gt;&lt;/p&gt;&lt;p style=&quot;margin: 0px 0px 0px 4px;&quot;&gt;&lt;font size=&quot;3&quot;&gt;+ removeObserver(observer: Observer):void&lt;/font&gt;&lt;/p&gt;&lt;p style=&quot;margin: 0px 0px 0px 4px;&quot;&gt;&lt;font size=&quot;3&quot;&gt;+ notifyObservers():void&lt;/font&gt;&lt;/p&gt;" style="verticalAlign=top;align=left;overflow=fill;html=1;whiteSpace=wrap;" vertex="1" parent="1">
          <mxGeometry x="30" y="60" width="320" height="130" as="geometry" />
        </mxCell>
        <mxCell id="m3QXswK85xcnjSoyaYpc-8" value="" style="endArrow=open;endFill=1;endSize=12;html=1;rounded=0;entryX=0;entryY=0.5;entryDx=0;entryDy=0;" edge="1" parent="1" target="m3QXswK85xcnjSoyaYpc-2">
          <mxGeometry width="160" relative="1" as="geometry">
            <mxPoint x="335" y="114.5" as="sourcePoint" />
            <mxPoint x="495" y="114.5" as="targetPoint" />
          </mxGeometry>
        </mxCell>
        <mxCell id="m3QXswK85xcnjSoyaYpc-10" value="" style="endArrow=block;dashed=1;endFill=0;endSize=12;html=1;rounded=0;entryX=0.5;entryY=1;entryDx=0;entryDy=0;exitX=0.5;exitY=0;exitDx=0;exitDy=0;" edge="1" parent="1" source="m3QXswK85xcnjSoyaYpc-6" target="m3QXswK85xcnjSoyaYpc-7">
          <mxGeometry width="160" relative="1" as="geometry">
            <mxPoint x="95" y="240" as="sourcePoint" />
            <mxPoint x="255" y="240" as="targetPoint" />
          </mxGeometry>
        </mxCell>
        <mxCell id="m3QXswK85xcnjSoyaYpc-11" value="&lt;p style=&quot;margin:0px;margin-top:4px;text-align:center;&quot;&gt;&lt;font style=&quot;font-size: 14px;&quot;&gt;&lt;i&gt;PhoneSubscribers&lt;/i&gt;&lt;/font&gt;&lt;/p&gt;&lt;hr size=&quot;1&quot; style=&quot;border-style:solid;&quot;&gt;&lt;p style=&quot;margin:0px;margin-left:4px;&quot;&gt;&lt;br&gt;&lt;/p&gt;&lt;p style=&quot;margin:0px;margin-left:4px;&quot;&gt;&lt;font style=&quot;font-size: 14px;&quot;&gt;+ weatherUpdate(weather String) : void&lt;/font&gt;&lt;br&gt;&lt;/p&gt;" style="verticalAlign=top;align=left;overflow=fill;html=1;whiteSpace=wrap;" vertex="1" parent="1">
          <mxGeometry x="420" y="330" width="255" height="90" as="geometry" />
        </mxCell>
        <mxCell id="m3QXswK85xcnjSoyaYpc-12" value="" style="endArrow=block;dashed=1;endFill=0;endSize=12;html=1;rounded=0;entryX=0.173;entryY=1.004;entryDx=0;entryDy=0;exitX=0.25;exitY=0;exitDx=0;exitDy=0;entryPerimeter=0;" edge="1" parent="1" source="m3QXswK85xcnjSoyaYpc-11" target="m3QXswK85xcnjSoyaYpc-2">
          <mxGeometry width="160" relative="1" as="geometry">
            <mxPoint x="185" y="310" as="sourcePoint" />
            <mxPoint x="185" y="200" as="targetPoint" />
            <Array as="points">
              <mxPoint x="484" y="260" />
              <mxPoint x="560" y="260" />
            </Array>
          </mxGeometry>
        </mxCell>
        <mxCell id="m3QXswK85xcnjSoyaYpc-13" value="&lt;p style=&quot;margin:0px;margin-top:4px;text-align:center;&quot;&gt;&lt;span style=&quot;font-size: 14px;&quot;&gt;&lt;i&gt;TvSubscribers&lt;/i&gt;&lt;/span&gt;&lt;/p&gt;&lt;hr size=&quot;1&quot; style=&quot;border-style:solid;&quot;&gt;&lt;p style=&quot;margin:0px;margin-left:4px;&quot;&gt;&lt;br&gt;&lt;/p&gt;&lt;p style=&quot;margin:0px;margin-left:4px;&quot;&gt;&lt;font style=&quot;font-size: 14px;&quot;&gt;+ weatherUpdate(weather String):void&lt;/font&gt;&lt;br&gt;&lt;/p&gt;" style="verticalAlign=top;align=left;overflow=fill;html=1;whiteSpace=wrap;" vertex="1" parent="1">
          <mxGeometry x="700" y="330" width="250" height="90" as="geometry" />
        </mxCell>
        <mxCell id="m3QXswK85xcnjSoyaYpc-14" value="" style="endArrow=block;dashed=1;endFill=0;endSize=12;html=1;rounded=0;entryX=0.173;entryY=1.004;entryDx=0;entryDy=0;exitX=0.5;exitY=0;exitDx=0;exitDy=0;entryPerimeter=0;" edge="1" parent="1" source="m3QXswK85xcnjSoyaYpc-13">
          <mxGeometry width="160" relative="1" as="geometry">
            <mxPoint x="640" y="330" as="sourcePoint" />
            <mxPoint x="718" y="160" as="targetPoint" />
            <Array as="points">
              <mxPoint x="825" y="260" />
              <mxPoint x="720" y="260" />
            </Array>
          </mxGeometry>
        </mxCell>
        <mxCell id="m3QXswK85xcnjSoyaYpc-15" style="edgeStyle=orthogonalEdgeStyle;rounded=0;orthogonalLoop=1;jettySize=auto;html=1;exitX=0;exitY=0.5;exitDx=0;exitDy=0;entryX=1;entryY=0.441;entryDx=0;entryDy=0;entryPerimeter=0;" edge="1" parent="1" source="m3QXswK85xcnjSoyaYpc-11" target="m3QXswK85xcnjSoyaYpc-6">
          <mxGeometry relative="1" as="geometry" />
        </mxCell>
        <mxCell id="m3QXswK85xcnjSoyaYpc-16" style="edgeStyle=orthogonalEdgeStyle;rounded=0;orthogonalLoop=1;jettySize=auto;html=1;exitX=0.25;exitY=1;exitDx=0;exitDy=0;entryX=1;entryY=0.882;entryDx=0;entryDy=0;entryPerimeter=0;" edge="1" parent="1" source="m3QXswK85xcnjSoyaYpc-13" target="m3QXswK85xcnjSoyaYpc-6">
          <mxGeometry relative="1" as="geometry" />
        </mxCell>
        <mxCell id="m3QXswK85xcnjSoyaYpc-18" value="&lt;font style=&quot;font-size: 18px;&quot;&gt;*&lt;/font&gt;" style="text;html=1;align=center;verticalAlign=middle;resizable=0;points=[];autosize=1;strokeColor=none;fillColor=none;" vertex="1" parent="1">
          <mxGeometry x="480" y="85" width="30" height="40" as="geometry" />
        </mxCell>
        <mxCell id="m3QXswK85xcnjSoyaYpc-19" value="&lt;font style=&quot;font-size: 14px;&quot;&gt;Subject&lt;/font&gt;" style="text;html=1;align=center;verticalAlign=middle;resizable=0;points=[];autosize=1;strokeColor=none;fillColor=none;" vertex="1" parent="1">
          <mxGeometry x="155" y="30" width="70" height="30" as="geometry" />
        </mxCell>
        <mxCell id="m3QXswK85xcnjSoyaYpc-20" value="&lt;font style=&quot;font-size: 14px;&quot;&gt;Observer&lt;/font&gt;" style="text;html=1;align=center;verticalAlign=middle;resizable=0;points=[];autosize=1;strokeColor=none;fillColor=none;" vertex="1" parent="1">
          <mxGeometry x="620" y="40" width="80" height="30" as="geometry" />
        </mxCell>
        <mxCell id="m3QXswK85xcnjSoyaYpc-21" value="&lt;font style=&quot;font-size: 14px;&quot;&gt;Concrete Observer&lt;/font&gt;" style="text;html=1;align=center;verticalAlign=middle;resizable=0;points=[];autosize=1;strokeColor=none;fillColor=none;" vertex="1" parent="1">
          <mxGeometry x="600" y="288" width="140" height="30" as="geometry" />
        </mxCell>
        <mxCell id="m3QXswK85xcnjSoyaYpc-22" value="&lt;font style=&quot;font-size: 14px;&quot;&gt;Concrete Subject&lt;/font&gt;" style="text;html=1;align=center;verticalAlign=middle;resizable=0;points=[];autosize=1;strokeColor=none;fillColor=none;" vertex="1" parent="1">
          <mxGeometry x="45" y="258" width="130" height="30" as="geometry" />
        </mxCell>
      </root>
    </mxGraphModel>
  </diagram>
</mxfile>
